<svg width="20" height="17" viewBox="0 0 20 17" fill="none" xmlns="http://www.w3.org/2000/svg">
<path d="M20 0.70752C19.22 1.17049 17.655 1.80145 16.735 1.98344C16.708 1.99044 16.686 1.99944 16.66 2.00644C15.847 1.20449 14.733 0.70752 13.5 0.70752C11.015 0.70752 9 2.72239 9 5.20724C9 5.33823 8.989 5.57922 9 5.70721C5.647 5.70721 3.095 3.95132 1.265 1.70746C1.066 2.20743 0.979 2.99738 0.979 3.73933C0.979 5.14024 2.074 6.51616 3.779 7.36911C3.465 7.4501 3.119 7.5081 2.759 7.5081C2.178 7.5081 1.563 7.35511 1 6.89113C1 6.90813 1 6.92413 1 6.94213C1 8.90001 3.078 10.2329 4.926 10.6039C4.551 10.8249 3.795 10.8469 3.426 10.8469C3.166 10.8469 2.246 10.7279 2 10.6819C2.514 12.2868 4.368 13.1887 6.135 13.2207C4.753 14.3047 3.794 14.7066 0.964 14.7066H0C1.788 15.8526 4.065 16.7075 6.347 16.7075C13.777 16.7075 18 11.0449 18 5.70721C18 5.62121 17.998 5.44123 17.995 5.26024C17.995 5.24224 18 5.22524 18 5.20724C18 5.18024 17.992 5.15424 17.992 5.12724C17.989 4.99125 17.986 4.86426 17.983 4.79826C18.773 4.2283 19.458 3.51734 20 2.7074C19.275 3.02938 18.497 3.24536 17.68 3.34336C18.514 2.84339 19.699 1.65146 20 0.70752Z" fill="white"/>
</svg>
