<svg width="33" height="32" viewBox="0 0 33 32" fill="none" xmlns="http://www.w3.org/2000/svg">
<path d="M22.851 30.3263C22.2519 30.3263 21.7663 29.8406 21.7663 29.2415C21.7663 28.6424 22.2519 28.1567 22.851 28.1567C23.4501 28.1567 23.9358 28.6424 23.9358 29.2415C23.9358 29.8406 23.4501 30.3263 22.851 30.3263Z" stroke="#383838" stroke-width="2" stroke-linecap="round" stroke-linejoin="round"/>
<path d="M7.66427 30.3263C7.06517 30.3263 6.57951 29.8406 6.57951 29.2415C6.57951 28.6424 7.06517 28.1567 7.66427 28.1567C8.26336 28.1567 8.74902 28.6424 8.74902 29.2415C8.74902 29.8406 8.26336 30.3263 7.66427 30.3263Z" stroke="#383838" stroke-width="2" stroke-linecap="round" stroke-linejoin="round"/>
<path d="M31.5289 6.46143H27.1899L23.9356 24.9023H6.57953" stroke="#383838" stroke-width="2" stroke-linecap="round" stroke-linejoin="round"/>
<path d="M23.9356 20.5634H7.02422C6.89879 20.5635 6.7772 20.5201 6.68016 20.4406C6.58312 20.3611 6.51663 20.2505 6.49201 20.1275L4.53945 10.3646C4.5237 10.2859 4.52561 10.2047 4.54506 10.1268C4.56452 10.0489 4.60102 9.97629 4.65194 9.91422C4.70285 9.85215 4.76691 9.80215 4.8395 9.76784C4.91208 9.73353 4.99138 9.71576 5.07166 9.71582H26.1051" stroke="#383838" stroke-width="2" stroke-linecap="round" stroke-linejoin="round"/>
<path d="M2.18166 10.5266L2.69266 11.6297C3.14742 12.4931 3.77595 13.26 4.54001 13.8836C5.30407 14.5072 6.18768 14.9745 7.13707 15.2571C11.0108 16.4153 15.0665 14.3016 16.1917 10.5382C17.3169 6.77476 15.087 2.78175 11.2133 1.62357C9.76211 1.18979 8.21596 1.20362 6.78764 1.66316C5.35933 2.1227 4.11905 3.00536 3.23749 4.18968" fill="white"/>
<path d="M2.18166 10.5266L2.69266 11.6297C3.14742 12.4931 3.77595 13.26 4.54001 13.8836C5.30407 14.5072 6.18768 14.9745 7.13707 15.2571C11.0108 16.4153 15.0665 14.3016 16.1917 10.5382C17.3169 6.77476 15.087 2.78175 11.2133 1.62357C9.76211 1.18979 8.21596 1.20361 6.78764 1.66316C5.35933 2.1227 4.11905 3.00536 3.23749 4.18968" stroke="#383838" stroke-width="2" stroke-miterlimit="6.76547" stroke-linecap="round"/>
<path d="M9.24097 4.30029V8.87419H12.7984" fill="white"/>
<path d="M9.24097 4.30029V8.87419H12.7984" stroke="#383838" stroke-width="2" stroke-linecap="round" stroke-linejoin="round"/>
<path d="M4.92273 4.61572L2.76662 4.62933L2.75301 2.47321" fill="white"/>
<path d="M4.92273 4.61572L2.76662 4.62933L2.75301 2.47321" stroke="#383838" stroke-width="2" stroke-linecap="round" stroke-linejoin="round"/>
</svg>
