<svg width="31" height="28" viewBox="0 0 31 28" fill="none" xmlns="http://www.w3.org/2000/svg">
<path d="M24.3393 23.1154V11.6154M2.91071 11.6154V23.1154M1.125 24H26.125M15.4107 24V15.5962C15.4107 15.2442 15.5518 14.9067 15.803 14.6579C16.0541 14.409 16.3948 14.2692 16.75 14.2692H20.3214C20.6766 14.2692 21.0173 14.409 21.2684 14.6579C21.5196 14.9067 21.6607 15.2442 21.6607 15.5962V24M20.6825 1H6.56752C5.35156 1 4.25335 1.66346 3.78125 2.68409L1.36496 7.91106C0.551339 9.66978 1.90234 11.6624 3.99833 11.726H4.10993C5.86216 11.726 7.28237 10.3338 7.28237 8.83825C7.28237 10.331 8.70312 11.726 10.4554 11.726C12.2076 11.726 13.625 10.4333 13.625 8.83825C13.625 10.331 15.0452 11.726 16.7974 11.726C18.5497 11.726 19.9704 10.4333 19.9704 8.83825C19.9704 10.4333 21.3906 11.726 23.1429 11.726H23.2517C25.3477 11.6613 26.6987 9.66868 25.885 7.91106L23.4687 2.68409C22.9967 1.66346 21.8984 1 20.6825 1ZM6.92857 14.2692H11.3929C11.7481 14.2692 12.0887 14.409 12.3399 14.6579C12.591 14.9067 12.7321 15.2442 12.7321 15.5962V20.4615H5.58929V15.5962C5.58929 15.2442 5.73039 14.9067 5.98155 14.6579C6.23272 14.409 6.57337 14.2692 6.92857 14.2692Z" stroke="#383838" stroke-width="2" stroke-linecap="round" stroke-linejoin="round"/>
<path d="M25.6584 15C23.2916 15 22.125 17.1538 22.125 17.1538C22.125 17.1538 20.9584 15 18.5916 15C16.6682 15 15.1451 16.4855 15.1254 18.258C15.0853 21.9374 18.2872 24.554 21.7969 26.7529C21.8937 26.8137 22.008 26.8462 22.125 26.8462C22.242 26.8462 22.3564 26.8137 22.4531 26.7529C25.9624 24.554 29.1644 21.9374 29.1246 18.258C29.1049 16.4855 27.5818 15 25.6584 15Z" fill="#F6F6F6" stroke="#383838" stroke-width="2" stroke-linecap="round" stroke-linejoin="round"/>
</svg>
