<svg width="33" height="33" viewBox="0 0 33 33" fill="none" xmlns="http://www.w3.org/2000/svg">
<g clip-path="url(#clip0_1008_151890)">
<path d="M3.2973 21.7286L4.45174 23.8238C5.4629 25.4562 6.8019 26.8751 8.38726 27.9944C9.97263 29.1136 11.7712 29.9096 13.6735 30.334C21.4362 32.0757 29.107 27.37 30.7991 19.8284C32.4912 12.2867 27.5661 4.75494 19.8035 3.01326C16.8954 2.36097 13.8623 2.60034 11.1218 3.69842C8.38121 4.7965 6.06783 6.69931 4.49999 9.14501" stroke="#383838" stroke-width="2" stroke-miterlimit="6.76547" stroke-linecap="round"/>
<path d="M8.37793 9.12109L4.13537 9.14786L4.1086 4.90531" stroke="#383838" stroke-width="2" stroke-linecap="round" stroke-linejoin="round"/>
<path d="M13.7056 10.9435C13.3993 10.4866 12.7804 10.3653 12.3209 10.67C11.8615 10.9746 11.7365 11.5901 12.0428 12.0471L15.0059 16.4706H13.3743C12.821 16.4706 12.3741 16.9151 12.3741 17.4653C12.3741 18.0156 12.821 18.4601 13.3743 18.4601H15.8748V19.4548H13.3743C12.821 19.4548 12.3741 19.8994 12.3741 20.4496C12.3741 20.9998 12.821 21.4443 13.3743 21.4443H15.8748V23.4338C15.8748 23.984 16.3218 24.4286 16.875 24.4286C17.4282 24.4286 17.8752 23.984 17.8752 23.4338V21.4443H20.3757C20.929 21.4443 21.3759 20.9998 21.3759 20.4496C21.3759 19.8994 20.929 19.4548 20.3757 19.4548H17.8752V18.4601H20.3757C20.929 18.4601 21.3759 18.0156 21.3759 17.4653C21.3759 16.9151 20.929 16.4706 20.3757 16.4706H18.7441L21.7072 12.0471C22.0135 11.5901 21.8885 10.9715 21.4291 10.6668C20.9696 10.3622 20.3476 10.4866 20.0413 10.9435L16.875 15.6717L13.7056 10.9435Z" fill="#383838"/>
</g>
<defs>
<clipPath id="clip0_1008_151890">
<rect width="32" height="32" fill="white" transform="translate(0.875 0.5)"/>
</clipPath>
</defs>
</svg>
