<svg width="32" height="32" viewBox="0 0 32 32" fill="none" xmlns="http://www.w3.org/2000/svg">
<path d="M15.9999 30C23.7319 30 29.9999 23.732 29.9999 16C29.9999 8.26801 23.7319 2 15.9999 2C8.26789 2 1.99988 8.26801 1.99988 16C1.99988 23.732 8.26789 30 15.9999 30Z" stroke="#383838" stroke-width="2" stroke-linecap="round" stroke-linejoin="round"/>
<path d="M13.9999 12C13.4457 12 12.9999 12.4501 12.9999 13.0096V17.3846V19.7404C12.9999 20.2999 13.4457 20.75 13.9999 20.75C14.554 20.75 14.9999 20.2999 14.9999 19.7404V18.3942H16.8332C18.5832 18.3942 19.9999 16.9639 19.9999 15.1971C19.9999 13.4303 18.5832 12 16.8332 12H13.9999ZM16.8332 16.375H14.9999V14.0192H16.8332C17.479 14.0192 17.9999 14.5451 17.9999 15.1971C17.9999 15.8492 17.479 16.375 16.8332 16.375Z" fill="#383838"/>
</svg>
