<svg width="31" height="31" viewBox="0 0 31 31" fill="none" xmlns="http://www.w3.org/2000/svg">
<path d="M13.375 4.5V8M13.375 4.5C13.375 3.80777 13.5803 3.13108 13.9649 2.55551C14.3494 1.97993 14.8961 1.53133 15.5356 1.26642C16.1752 1.00152 16.8789 0.932205 17.5578 1.06725C18.2368 1.2023 18.8604 1.53564 19.3499 2.02513C19.8394 2.51461 20.1727 3.13825 20.3078 3.81719C20.4428 4.49612 20.3735 5.19985 20.1086 5.8394C19.8437 6.47894 19.3951 7.02556 18.8195 7.41015C18.2439 7.79473 17.5672 8 16.875 8H13.375M13.375 4.5C13.375 3.80777 13.1697 3.13108 12.7851 2.55551C12.4006 1.97993 11.8539 1.53133 11.2144 1.26642C10.5749 1.00152 9.87112 0.932205 9.19219 1.06725C8.51325 1.2023 7.88961 1.53564 7.40013 2.02513C6.91064 2.51461 6.5773 3.13825 6.44225 3.81719C6.3072 4.49612 6.37652 5.19985 6.64142 5.8394C6.90633 6.47894 7.35493 7.02556 7.93051 7.41015C8.50608 7.79473 9.18277 8 9.875 8H13.375" stroke="#383838" stroke-width="2" stroke-miterlimit="10" stroke-linecap="round"/>
<path d="M23.375 8H3.375C2.27043 8 1.375 8.89543 1.375 10V13C1.375 14.1046 2.27043 15 3.375 15H23.375C24.4796 15 25.375 14.1046 25.375 13V10C25.375 8.89543 24.4796 8 23.375 8Z" stroke="#383838" stroke-width="2" stroke-linecap="round" stroke-linejoin="round"/>
<path d="M23.375 15V24C23.375 24.7956 23.0589 25.5587 22.4963 26.1213C21.9337 26.6839 21.1706 27 20.375 27H6.375C5.57935 27 4.81629 26.6839 4.25368 26.1213C3.69107 25.5587 3.375 24.7956 3.375 24V15M13.375 8V27" stroke="#383838" stroke-width="2" stroke-linecap="round" stroke-linejoin="round"/>
<path d="M25.9084 18C23.5416 18 22.375 20.1538 22.375 20.1538C22.375 20.1538 21.2084 18 18.8416 18C16.9182 18 15.3951 19.4855 15.3754 21.258C15.3353 24.9374 18.5372 27.554 22.0469 29.7529C22.1437 29.8137 22.258 29.8462 22.375 29.8462C22.492 29.8462 22.6064 29.8137 22.7031 29.7529C26.2124 27.554 29.4144 24.9374 29.3746 21.258C29.3549 19.4855 27.8318 18 25.9084 18Z" fill="#F6F6F6" stroke="#383838" stroke-width="2" stroke-linecap="round" stroke-linejoin="round"/>
</svg>
