<svg width="31" height="32" viewBox="0 0 31 32" fill="none" xmlns="http://www.w3.org/2000/svg">
<path d="M16.0483 11.6163C15.1646 11.529 14.2754 11.7171 13.5026 12.1546C12.7298 12.5922 12.1112 13.2579 11.7314 14.0607C11.3516 14.8635 11.2292 15.764 11.381 16.639C11.5327 17.514 11.9512 18.3207 12.5792 18.9487C13.2072 19.5766 14.0139 19.9951 14.8889 20.1469C15.7639 20.2987 16.6644 20.1763 17.4672 19.7965C18.2699 19.4167 18.9357 18.798 19.3732 18.0252C19.8108 17.2524 19.9988 16.3633 19.9115 15.4795C19.812 14.4888 19.373 13.563 18.669 12.8589C17.9649 12.1548 17.0391 11.7158 16.0483 11.6163ZM26.4197 15.9029C26.417 16.3711 26.3826 16.8385 26.3168 17.3021L29.3595 19.6887C29.492 19.7985 29.5813 19.9517 29.6115 20.1212C29.6417 20.2906 29.6108 20.4652 29.5244 20.6141L26.6459 25.5945C26.5585 25.7419 26.4218 25.8537 26.26 25.9102C26.0982 25.9667 25.9217 25.9643 25.7615 25.9034L22.7396 24.6866C22.573 24.6202 22.3925 24.5963 22.2143 24.6168C22.0361 24.6374 21.8658 24.7018 21.7186 24.8044C21.2574 25.122 20.7728 25.4041 20.2689 25.6483C20.1105 25.7253 19.9735 25.8402 19.8699 25.9827C19.7664 26.1252 19.6996 26.291 19.6753 26.4654L19.2224 29.6885C19.1926 29.8588 19.1047 30.0134 18.9736 30.1259C18.8424 30.2385 18.6763 30.3021 18.5036 30.3057H12.7464C12.5765 30.3028 12.4127 30.242 12.2819 30.1335C12.1511 30.025 12.0612 29.8752 12.027 29.7087L11.5747 26.4903C11.5493 26.3139 11.4807 26.1466 11.375 26.0031C11.2694 25.8596 11.1299 25.7444 10.969 25.6679C10.4657 25.4249 9.9827 25.142 9.52465 24.8219C9.37799 24.7198 9.20825 24.6559 9.03072 24.6358C8.85319 24.6157 8.67345 24.6401 8.5077 24.7068L5.48646 25.9229C5.32635 25.9839 5.14987 25.9864 4.98809 25.93C4.82631 25.8736 4.68962 25.762 4.6021 25.6147L1.72355 20.6343C1.637 20.4855 1.60608 20.3108 1.63627 20.1413C1.66647 19.9719 1.75583 19.8186 1.88844 19.7088L4.46009 17.6898C4.60098 17.5779 4.71171 17.4327 4.78223 17.2672C4.85275 17.1017 4.88082 16.9212 4.86391 16.7421C4.83968 16.4615 4.82487 16.1815 4.82487 15.9008C4.82487 15.6202 4.83901 15.3442 4.86391 15.0696C4.87897 14.8916 4.84952 14.7127 4.77821 14.5489C4.70689 14.3851 4.59595 14.2417 4.45538 14.1314L1.88507 12.1123C1.75461 12.002 1.66714 11.8493 1.63797 11.681C1.60881 11.5126 1.63982 11.3394 1.72557 11.1916L4.60412 6.21122C4.69154 6.06381 4.82818 5.952 4.98997 5.89549C5.15175 5.83897 5.3283 5.84138 5.48848 5.90229L8.51039 7.11913C8.67704 7.18549 8.85754 7.20946 9.03573 7.1889C9.21391 7.16835 9.38422 7.10391 9.53138 7.00135C9.99257 6.68377 10.4772 6.40163 10.9811 6.15737C11.1395 6.08038 11.2765 5.96556 11.3801 5.82306C11.4836 5.68057 11.5504 5.51477 11.5747 5.34031L12.0277 2.11717C12.0574 1.94695 12.1453 1.79234 12.2764 1.67977C12.4076 1.5672 12.5737 1.50366 12.7464 1.5H18.5036C18.6735 1.50294 18.8373 1.56367 18.9681 1.67218C19.0989 1.7807 19.1888 1.93052 19.223 2.09698L19.6753 5.31541C19.7007 5.49179 19.7693 5.65916 19.875 5.80264C19.9806 5.94613 20.1201 6.06128 20.281 6.13786C20.7843 6.38079 21.2673 6.6637 21.7254 6.98386C21.872 7.0859 22.0418 7.14984 22.2193 7.16993C22.3968 7.19002 22.5766 7.16563 22.7423 7.09894L25.7635 5.88278C25.9236 5.82181 26.1001 5.8193 26.2619 5.87568C26.4237 5.93207 26.5604 6.04374 26.6479 6.19102L29.5265 11.1715C29.613 11.3203 29.6439 11.4949 29.6137 11.6644C29.5835 11.8339 29.4942 11.9871 29.3616 12.0969L26.7899 14.116C26.6484 14.2274 26.537 14.3725 26.4659 14.538C26.3948 14.7035 26.3662 14.8842 26.3827 15.0636C26.4049 15.3422 26.4197 15.6222 26.4197 15.9029Z" stroke="#383838" stroke-width="2" stroke-linecap="round" stroke-linejoin="round"/>
</svg>
